HIERARCHY
ROOT Hips
{
	OFFSET 0.000000 97.167313 0.000000
	CHANNELS 6 Xposition Yposition Zposition Xrotation Yrotation Zrotation
	JOINT Spine
	{
		OFFSET 0.000000 13.784798 0.064400
		CHANNELS 3 Xrotation Yrotation Zrotation
		JOINT Spine1
		{
			OFFSET 0.000000 12.037903 0.404700
			CHANNELS 3 Xrotation Yrotation Zrotation
			JOINT Spine2
			{
				OFFSET 0.000000 17.795601 0.420200
				CHANNELS 3 Xrotation Yrotation Zrotation
				JOINT Neck
				{
					OFFSET 0.000000 39.131302 11.954600
					CHANNELS 3 Xrotation Yrotation Zrotation
					JOINT Head
					{
						OFFSET 0.000000 14.456192 15.627699
						CHANNELS 3 Xrotation Yrotation Zrotation
						JOINT HeadTop_End
						{
							OFFSET 0.000000 15.703506 7.603401
							CHANNELS 3 Xrotation Yrotation Zrotation
							End Site
							{
								OFFSET 0.000000 17.447403 0.000000
							}
						}
					}
				}
				JOINT LeftShoulder
				{
					OFFSET 17.399500 24.608795 1.168800
					CHANNELS 3 Xrotation Yrotation Zrotation
					JOINT LeftArm
					{
						OFFSET 18.980635 5.765305 1.818600
						CHANNELS 3 Xrotation Yrotation Zrotation
						JOINT LeftForeArm
						{
							OFFSET 49.290169 0.000000 0.000000
							CHANNELS 3 Xrotation Yrotation Zrotation
							JOINT LeftHand
							{
								OFFSET 31.562012 0.000000 0.000000
								CHANNELS 3 Xrotation Yrotation Zrotation
								JOINT LeftHandThumb1
								{
									OFFSET 6.133995 -4.388519 7.076070
									CHANNELS 3 Xrotation Yrotation Zrotation
									JOINT LeftHandThumb2
									{
										OFFSET 6.037666 -3.485840 3.485847
										CHANNELS 3 Xrotation Yrotation Zrotation
										JOINT LeftHandThumb3
										{
											OFFSET 6.496506 -3.750763 3.750761
											CHANNELS 3 Xrotation Yrotation Zrotation
											JOINT LeftHandThumb4
											{
												OFFSET 5.616882 -3.242905 3.242910
												CHANNELS 3 Xrotation Yrotation Zrotation
												End Site
												{
													OFFSET -1.254608 7.132141 0.375429
												}
											}
										}
									}
								}
								JOINT LeftHandPinky1
								{
									OFFSET 18.920792 -0.453171 -11.426712
									CHANNELS 3 Xrotation Yrotation Zrotation
									JOINT LeftHandPinky2
									{
										OFFSET 4.919586 0.000000 0.000000
										CHANNELS 3 Xrotation Yrotation Zrotation
										JOINT LeftHandPinky3
										{
											OFFSET 5.233047 0.000000 0.000000
											CHANNELS 3 Xrotation Yrotation Zrotation
											JOINT LeftHandPinky4
											{
												OFFSET 5.571716 0.000000 0.000000
												CHANNELS 3 Xrotation Yrotation Zrotation
												End Site
												{
													OFFSET -3.459808 4.342407 -0.466164
												}
											}
										}
									}
								}
								JOINT LeftHandRing1
								{
									OFFSET 22.726120 -0.094986 -6.500475
									CHANNELS 3 Xrotation Yrotation Zrotation
									JOINT LeftHandRing2
									{
										OFFSET 6.408615 0.000000 0.000000
										CHANNELS 3 Xrotation Yrotation Zrotation
										JOINT LeftHandRing3
										{
											OFFSET 6.150223 0.000000 0.000000
											CHANNELS 3 Xrotation Yrotation Zrotation
											JOINT LeftHandRing4
											{
												OFFSET 6.145386 0.000000 0.000000
												CHANNELS 3 Xrotation Yrotation Zrotation
												End Site
												{
													OFFSET -3.671402 4.923981 -0.202372
												}
											}
										}
									}
								}
								JOINT LeftHandMiddle1
								{
									OFFSET 23.373947 0.000000 0.000001
									CHANNELS 3 Xrotation Yrotation Zrotation
									JOINT LeftHandMiddle2
									{
										OFFSET 6.996567 0.000000 0.000000
										CHANNELS 3 Xrotation Yrotation Zrotation
										JOINT LeftHandMiddle3
										{
											OFFSET 7.015945 0.000000 0.000000
											CHANNELS 3 Xrotation Yrotation Zrotation
											JOINT LeftHandMiddle4
											{
												OFFSET 7.721573 0.000000 0.000000
												CHANNELS 3 Xrotation Yrotation Zrotation
												End Site
												{
													OFFSET -4.651108 6.158463 0.251582
												}
											}
										}
									}
								}
								JOINT LeftHandIndex1
								{
									OFFSET 21.310577 -0.490082 6.209344
									CHANNELS 3 Xrotation Yrotation Zrotation
									JOINT LeftHandIndex2
									{
										OFFSET 7.536453 0.000000 0.000000
										CHANNELS 3 Xrotation Yrotation Zrotation
										JOINT LeftHandIndex3
										{
											OFFSET 7.512344 0.000000 0.000000
											CHANNELS 3 Xrotation Yrotation Zrotation
											JOINT LeftHandIndex4
											{
												OFFSET 10.212402 0.000000 0.000001
												CHANNELS 3 Xrotation Yrotation Zrotation
												End Site
												{
													OFFSET -5.180801 8.690506 1.388433
												}
											}
										}
									}
								}
							}
						}
					}
				}
				JOINT RightShoulder
				{
					OFFSET -17.399500 24.608795 1.168800
					CHANNELS 3 Xrotation Yrotation Zrotation
					JOINT RightArm
					{
						OFFSET -18.980635 5.765305 1.818600
						CHANNELS 3 Xrotation Yrotation Zrotation
						JOINT RightForeArm
						{
							OFFSET -49.290169 0.000000 0.000000
							CHANNELS 3 Xrotation Yrotation Zrotation
							JOINT RightHand
							{
								OFFSET -31.562012 0.000000 0.000000
								CHANNELS 3 Xrotation Yrotation Zrotation
								JOINT RightHandThumb1
								{
									OFFSET -6.133995 -4.388519 7.076070
									CHANNELS 3 Xrotation Yrotation Zrotation
									JOINT RightHandThumb2
									{
										OFFSET -6.037666 -3.485840 3.485847
										CHANNELS 3 Xrotation Yrotation Zrotation
										JOINT RightHandThumb3
										{
											OFFSET -6.496506 -3.750763 3.750761
											CHANNELS 3 Xrotation Yrotation Zrotation
											JOINT RightHandThumb4
											{
												OFFSET -5.616882 -3.242905 3.242910
												CHANNELS 3 Xrotation Yrotation Zrotation
												End Site
												{
													OFFSET 1.254608 7.132141 0.375429
												}
											}
										}
									}
								}
								JOINT RightHandIndex1
								{
									OFFSET -21.310577 -0.490082 6.209344
									CHANNELS 3 Xrotation Yrotation Zrotation
									JOINT RightHandIndex2
									{
										OFFSET -7.536453 0.000000 0.000000
										CHANNELS 3 Xrotation Yrotation Zrotation
										JOINT RightHandIndex3
										{
											OFFSET -7.512344 0.000000 0.000000
											CHANNELS 3 Xrotation Yrotation Zrotation
											JOINT RightHandIndex4
											{
												OFFSET -10.212402 0.000000 0.000001
												CHANNELS 3 Xrotation Yrotation Zrotation
												End Site
												{
													OFFSET 5.180801 8.690506 1.388433
												}
											}
										}
									}
								}
								JOINT RightHandMiddle1
								{
									OFFSET -23.373947 0.000000 0.000001
									CHANNELS 3 Xrotation Yrotation Zrotation
									JOINT RightHandMiddle2
									{
										OFFSET -6.996567 0.000000 0.000000
										CHANNELS 3 Xrotation Yrotation Zrotation
										JOINT RightHandMiddle3
										{
											OFFSET -7.015945 0.000000 0.000000
											CHANNELS 3 Xrotation Yrotation Zrotation
											JOINT RightHandMiddle4
											{
												OFFSET -7.721573 0.000000 0.000000
												CHANNELS 3 Xrotation Yrotation Zrotation
												End Site
												{
													OFFSET 4.651108 6.158463 0.251582
												}
											}
										}
									}
								}
								JOINT RightHandRing1
								{
									OFFSET -22.726120 -0.094986 -6.500475
									CHANNELS 3 Xrotation Yrotation Zrotation
									JOINT RightHandRing2
									{
										OFFSET -6.408615 0.000000 0.000000
										CHANNELS 3 Xrotation Yrotation Zrotation
										JOINT RightHandRing3
										{
											OFFSET -6.150223 0.000000 0.000000
											CHANNELS 3 Xrotation Yrotation Zrotation
											JOINT RightHandRing4
											{
												OFFSET -6.145386 0.000000 0.000000
												CHANNELS 3 Xrotation Yrotation Zrotation
												End Site
												{
													OFFSET 3.671402 4.923981 -0.202372
												}
											}
										}
									}
								}
								JOINT RightHandPinky1
								{
									OFFSET -18.920792 -0.453171 -11.426712
									CHANNELS 3 Xrotation Yrotation Zrotation
									JOINT RightHandPinky2
									{
										OFFSET -4.919586 0.000000 0.000000
										CHANNELS 3 Xrotation Yrotation Zrotation
										JOINT RightHandPinky3
										{
											OFFSET -5.233047 0.000000 0.000000
											CHANNELS 3 Xrotation Yrotation Zrotation
											JOINT RightHandPinky4
											{
												OFFSET -5.571716 0.000000 0.000000
												CHANNELS 3 Xrotation Yrotation Zrotation
												End Site
												{
													OFFSET 3.459808 4.342407 -0.466164
												}
											}
										}
									}
								}
							}
						}
					}
				}
			}
		}
	}
	JOINT LeftUpLeg
	{
		OFFSET 19.899099 -7.885101 -3.429500
		CHANNELS 3 Xrotation Yrotation Zrotation
		JOINT LeftLeg
		{
			OFFSET 1.745560 -36.997807 10.304700
			CHANNELS 3 Xrotation Yrotation Zrotation
			JOINT LeftFoot
			{
				OFFSET -1.745558 -29.803308 -13.615400
				CHANNELS 3 Xrotation Yrotation Zrotation
				JOINT LeftToeBase
				{
					OFFSET 1.181900 -18.539904 15.226099
					CHANNELS 3 Xrotation Yrotation Zrotation
					JOINT LeftToe_End
					{
						OFFSET -0.863701 1.402801 16.534700
						CHANNELS 3 Xrotation Yrotation Zrotation
						End Site
						{
							OFFSET 0.000000 16.616566 0.000000
						}
					}
				}
			}
		}
	}
	JOINT RightUpLeg
	{
		OFFSET -19.899099 -7.885101 -3.429500
		CHANNELS 3 Xrotation Yrotation Zrotation
		JOINT RightLeg
		{
			OFFSET -1.745560 -36.997807 10.304700
			CHANNELS 3 Xrotation Yrotation Zrotation
			JOINT RightFoot
			{
				OFFSET 1.745558 -29.803308 -13.615400
				CHANNELS 3 Xrotation Yrotation Zrotation
				JOINT RightToeBase
				{
					OFFSET -1.181900 -18.539904 15.226099
					CHANNELS 3 Xrotation Yrotation Zrotation
					JOINT RightToe_End
					{
						OFFSET 0.863701 1.402801 16.534700
						CHANNELS 3 Xrotation Yrotation Zrotation
						End Site
						{
							OFFSET 0.000000 16.616566 0.000000
						}
					}
				}
			}
		}
	}
}
MOTION
Frames: 6
Frame Time: 0.033333
2.005368 78.460449 0.032172 3.597909 5.060961 7.390599 -1.342015 2.622996 -5.785780 -8.452442 2.288267 4.029161 -8.462230 1.740159 1.056670 11.145108 -1.060712 -2.047439 12.559126 -9.450619 1.495397 -0.000000 0.000000 -0.000000 4.345451 17.316174 10.189000 4.789333 -21.823966 -3.105693 0.000004 -9.157210 -0.000002 -3.868223 -5.164531 3.062768 -16.013964 1.539945 -9.550165 6.016005 20.779005 3.292808 0.751584 25.276585 6.411466 -0.000001 0.000001 -0.000001 -12.804611 14.522213 -12.120855 0.522649 2.420711 -24.363703 0.202095 1.526963 -15.077525 0.000001 0.000001 -0.000004 0.542150 7.660627 -5.194666 0.939623 3.183945 -32.876586 0.001316 0.124232 -1.212391 -0.000000 0.000001 0.000002 0.224300 4.015157 -7.011723 1.000206 3.275633 -33.951907 0.009519 0.334249 -3.263464 0.000000 0.000000 0.000008 -0.232466 0.704329 -8.257548 0.251619 1.700107 -16.836261 0.504170 2.379516 -23.922522 -0.000000 -0.000000 0.000003 20.918417 12.884616 -24.004415 -13.869229 -6.972493 2.685794 -0.000001 7.431193 0.000005 -1.070179 -7.438312 18.866639 -17.883380 1.165936 9.936643 5.804839 -21.579593 -4.337997 4.047037 -30.974983 -6.167331 0.000000 -0.000001 0.000002 0.603321 -7.291720 6.477061 0.214888 -1.399734 17.454782 0.390128 -1.867625 23.595764 -0.000002 -0.000001 -0.000001 0.164606 -3.519585 6.932095 0.812887 -2.630792 34.335907 0.007906 -0.271593 3.335866 -0.000000 -0.000000 -0.000007 0.213771 -4.156228 5.709932 0.785420 -2.590161 33.732798 0.000429 -0.062897 0.772193 0.000000 0.000002 0.000000 -12.257485 -16.686654 12.197681 0.427165 -1.950177 24.707436 0.161649 -1.217624 15.124329 -0.000001 0.000001 0.000007 -7.040652 52.172328 -12.311559 51.082152 -15.641405 16.460420 -33.149408 -3.348892 7.627938 -4.023847 0.000020 0.000004 -0.000000 -0.000000 -0.000000 -15.583544 -10.681805 5.726500 63.692832 23.442714 -13.407617 -67.833860 -43.773999 -33.616190 -3.477816 0.000000 0.000001 0.000000 0.000000 0.000000 
0.336831 78.012642 0.140587 3.673794 -1.725725 7.560442 -1.448929 2.943123 -5.305570 -8.626014 3.150523 4.093023 -8.647167 2.610756 1.131611 11.655330 -0.388525 -2.145760 13.023591 -5.891600 0.500910 -0.000000 -0.000000 -0.000000 3.678560 19.722321 12.274286 3.457255 -22.169235 -6.399463 0.000003 -8.997460 0.000004 -3.075483 -5.893492 4.225451 -15.997756 1.559876 -9.561092 6.016794 20.789965 3.287823 0.751707 25.283578 6.408498 -0.000001 -0.000003 -0.000001 -12.809815 14.517005 -12.088866 0.522030 2.419333 -24.348962 0.201720 1.525579 -15.063513 -0.000000 0.000001 0.000001 0.539303 7.657468 -5.164232 0.938677 3.182482 -32.859535 0.001283 0.122726 -1.197705 0.000001 0.000000 0.000005 0.223500 4.012167 -6.985786 0.999313 3.274308 -33.936263 0.009417 0.332443 -3.245858 0.000001 -0.000001 0.000008 -0.231652 0.703361 -8.235182 0.251236 1.698834 -16.823313 0.503556 2.378132 -23.907692 -0.000001 0.000001 0.000003 21.037980 15.003607 -23.375687 -13.448261 -5.310603 2.049262 0.000007 7.499187 -0.000002 -0.969400 -7.453789 19.623422 -17.926269 1.221301 9.908508 5.809932 -21.633070 -4.314925 4.316051 -31.373357 -5.836596 -0.000001 -0.000007 0.000001 0.605901 -7.407385 6.350029 0.207153 -1.374904 17.135338 0.387431 -1.861441 23.512863 -0.000001 0.000000 -0.000003 0.158025 -3.515889 6.428397 0.808490 -2.624357 34.240012 0.008266 -0.277652 3.410402 0.000000 0.000001 -0.000008 0.224306 -4.398275 5.224725 0.777663 -2.578522 33.560715 0.000251 -0.048317 0.593141 -0.000001 -0.000001 -0.000000 -12.301685 -16.767612 11.884596 0.419738 -1.933970 24.488332 0.159864 -1.210983 15.039957 0.000000 0.000003 0.000003 -6.421524 55.034570 -10.895136 51.133132 -14.111205 16.824132 -35.162698 -2.306651 5.362239 -4.005974 0.000006 0.000001 -0.000000 -0.000001 0.000000 -16.396142 -10.215355 6.027868 65.509546 26.161252 -13.517243 -66.932473 -40.960481 -36.182230 -3.879527 -0.000009 0.000000 0.000000 -0.000000 0.000000 
-1.341868 77.399719 0.470614 3.220649 -8.018988 7.092018 -1.463800 3.239679 -4.550516 -8.536490 3.902423 4.190374 -8.570997 3.374881 1.236284 12.115797 0.289738 -2.229910 13.538646 -2.321834 -0.418557 -0.000001 0.000000 0.000000 2.814885 21.281964 14.869906 2.350184 -22.217400 -9.916485 0.000002 -8.741493 0.000003 -3.183505 -6.564241 5.219204 -15.989946 1.569684 -9.566835 6.011886 20.739133 3.312002 0.750272 25.250318 6.421677 0.000000 -0.000001 -0.000001 -12.787174 14.530915 -12.236454 0.524837 2.425548 -24.415602 0.203478 1.532087 -15.129383 0.000001 0.000001 0.000001 0.551338 7.659843 -5.306119 0.942831 3.188895 -32.934305 0.001437 0.129851 -1.267221 -0.000001 0.000000 0.000003 0.227150 4.025238 -7.107608 1.003481 3.280483 -34.009178 0.009903 0.340828 -3.327820 0.000000 -0.000000 0.000004 -0.235310 0.710077 -8.340110 0.253035 1.704764 -16.883797 0.506443 2.384629 -23.977237 -0.000001 -0.000001 0.000001 21.105623 16.985060 -22.715773 -13.010003 -3.878703 1.407509 0.000003 7.259268 0.000007 -0.807015 -7.540181 21.225918 -17.904134 1.192776 9.922875 5.839492 -21.653896 -4.320870 4.587797 -31.745008 -5.506672 -0.000001 -0.000001 -0.000000 0.612443 -7.516452 6.282321 0.203401 -1.362666 16.978073 0.389056 -1.865174 23.562833 -0.000001 -0.000003 0.000003 0.154738 -3.531002 6.044510 0.809603 -2.625988 34.264279 0.009040 -0.290367 3.566740 0.000001 -0.000000 -0.000004 0.236774 -4.617314 4.982534 0.774661 -2.573994 33.494015 0.000195 -0.042550 0.522348 0.000000 0.000001 -0.000005 -12.292291 -16.873053 11.829685 0.416405 -1.926638 24.389460 0.160742 -1.214256 15.081526 0.000000 -0.000001 0.000009 -7.812283 53.554506 -8.893317 52.474738 -10.521472 16.242453 -37.675026 -1.249666 3.828385 -3.259309 0.000005 -0.000000 -0.000000 0.000000 -0.000000 -17.187015 -9.699870 8.404579 68.215060 29.463404 -13.400909 -66.634738 -37.692805 -40.031561 -3.641029 0.000022 0.000004 0.000001 0.000001 0.000000 
-2.813452 76.530556 1.019111 2.115377 -13.766163 5.930562 -1.432065 3.586006 -3.310388 -8.209980 4.647977 4.301530 -8.261007 4.132226 1.349837 12.533904 0.954096 -2.333770 14.088507 1.165792 -1.348290 -0.000000 0.000000 -0.000000 2.041351 21.964164 17.217420 1.616969 -21.962934 -12.883798 0.000004 -8.532628 0.000000 -3.561343 -7.237199 6.039063 -15.998622 1.559289 -9.561766 6.000556 20.616981 3.369740 0.747124 25.170630 6.453537 -0.000001 -0.000000 -0.000001 -12.731811 14.567260 -12.591554 0.531680 2.440526 -24.576528 0.207730 1.547725 -15.287589 0.000003 0.000003 -0.000004 0.580568 7.669239 -5.646967 0.952928 3.204405 -33.115383 0.001840 0.146907 -1.433736 -0.000000 -0.000001 0.000005 0.236071 4.056879 -7.399958 1.013523 3.295294 -34.184270 0.011107 0.360967 -3.524700 -0.000000 -0.000001 0.000004 -0.243949 0.725550 -8.591960 0.257370 1.718997 -17.029094 0.513412 2.400228 -24.144194 -0.000002 0.000000 0.000006 21.237000 18.789639 -22.407692 -12.564777 -2.842524 0.821019 0.000006 6.756896 -0.000002 -0.663119 -7.607662 23.679176 -17.787495 1.042271 9.999768 5.871653 -21.558737 -4.387446 4.807636 -31.980127 -5.261448 -0.000000 -0.000004 0.000001 0.629916 -7.598171 6.378887 0.205014 -1.367966 17.046071 0.396990 -1.883253 23.805511 -0.000000 -0.000001 -0.000003 0.157533 -3.568672 5.956405 0.819074 -2.639819 34.470472 0.010609 -0.314536 3.864129 0.000001 0.000000 -0.000011 0.256598 -4.764583 5.163513 0.780073 -2.582138 33.614195 0.000293 -0.052517 0.644600 0.000003 -0.000000 -0.000003 -12.199242 -16.984275 12.195844 0.419882 -1.934293 24.492872 0.165587 -1.232084 15.308365 -0.000001 -0.000001 -0.000001 -14.628768 47.287999 -3.430540 58.346269 -4.514115 14.525394 -38.508374 0.014647 2.627408 -2.001273 0.000013 0.000001 0.000000 0.000001 0.000000 -16.564411 -8.559425 11.434297 70.601459 31.585387 -13.441966 -66.431936 -35.070747 -43.023799 -3.383328 0.000010 -0.000003 0.000000 0.000001 0.000000 
-4.202755 75.675491 2.113578 0.353360 -19.114163 4.453485 -1.390704 4.079524 -1.859690 -7.701834 5.485925 4.365236 -7.771920 4.980166 1.408769 12.918896 1.589862 -2.448866 14.671704 4.505721 -2.280983 -0.000000 -0.000000 -0.000000 1.583702 22.063244 18.681358 1.290769 -21.481409 -14.764967 0.000005 -8.472551 -0.000001 -3.503087 -7.956718 6.890598 -15.992048 1.567266 -9.565963 5.979695 20.390247 3.476755 0.741444 25.022804 6.512757 -0.000002 0.000001 0.000000 -12.628923 14.634616 -13.250753 0.544476 2.468308 -24.875554 0.215741 1.576712 -15.581366 0.000001 0.000002 -0.000002 0.634735 7.687023 -6.279968 0.971816 3.233127 -33.451736 0.002714 0.178536 -1.742499 0.000000 0.000001 0.000002 0.253094 4.115493 -7.942604 1.032282 3.322698 -34.509285 0.013527 0.398338 -3.890140 0.000001 0.000000 0.000008 -0.259756 0.754061 -9.059390 0.265523 1.745375 -17.298853 0.526477 2.429134 -24.454208 -0.000001 0.000003 0.000003 21.534374 20.529037 -22.683779 -12.137702 -2.178223 0.286309 0.000006 6.126922 0.000000 -0.591225 -7.613522 26.624573 -17.553561 0.740717 10.156832 5.874232 -21.251947 -4.547660 4.916035 -31.962164 -5.195062 -0.000000 -0.000003 0.000002 0.674104 -7.650242 6.825867 0.213110 -1.394092 17.382048 0.413009 -1.919130 24.288245 -0.000000 -0.000001 -0.000001 0.170846 -3.636152 6.368799 0.839741 -2.669647 34.916706 0.013527 -0.355068 4.362991 0.000000 -0.000000 -0.000006 0.289798 -4.820543 5.927796 0.797970 -2.608849 34.009486 0.000714 -0.081568 1.001390 -0.000001 -0.000001 -0.000002 -12.000159 -17.080828 13.116511 0.432416 -1.961542 24.861433 0.175586 -1.268049 15.766886 -0.000000 -0.000000 0.000002 -23.820971 38.460881 2.014748 68.214192 1.123188 11.603370 -36.347361 1.170825 2.136617 -0.678906 0.000000 0.000002 -0.000001 -0.000000 0.000000 -14.399330 -6.663513 14.215301 72.464694 32.807970 -13.618872 -66.668479 -32.929650 -44.971912 -3.367625 0.000001 -0.000008 0.000000 0.000002 0.000000 
-6.103596 75.334183 3.653298 -1.954783 -24.247720 3.292543 -1.351311 4.757389 -0.804764 -7.078423 6.455354 4.291565 -7.165594 5.959028 1.320226 13.268139 2.177630 -2.527193 15.269245 7.596361 -3.083309 0.000000 0.000000 0.000000 1.499645 21.979064 18.992193 1.266376 -20.806599 -15.458557 0.000003 -8.563359 -0.000000 -2.659668 -8.700411 7.957442 -15.886808 1.695391 -9.634404 5.943916 20.003903 3.659212 0.731802 24.770646 6.613521 -0.000001 -0.000000 0.000000 -12.449000 14.740742 -14.374101 0.566643 2.515509 -25.385242 0.229732 1.626052 -16.082169 0.000003 0.000000 -0.000002 0.725836 7.710747 -7.359899 1.004274 3.281648 -34.022986 0.004602 0.232443 -2.268853 -0.000002 0.000001 0.000005 0.283431 4.214528 -8.868190 1.064616 3.369163 -35.063223 0.018204 0.461978 -4.512875 0.000000 -0.000002 0.000002 -0.286336 0.803351 -9.856444 0.279716 1.790281 -17.758804 0.549117 2.478274 -24.983054 -0.000000 0.000003 0.000001 22.040247 22.345348 -23.544430 -11.788832 -1.715332 -0.237491 -0.000000 5.574090 0.000006 -0.569612 -7.583260 29.430701 -17.207197 0.295182 10.395422 5.827570 -20.698868 -4.808826 4.872244 -31.624770 -5.367906 -0.000000 -0.000002 -0.000000 0.757306 -7.681209 7.759651 0.228173 -1.441323 17.990973 0.437265 -1.971974 25.002739 -0.000000 -0.000003 -0.000002 0.198248 -3.735965 7.390965 0.872295 -2.715639 35.609714 0.018308 -0.413020 5.076775 0.000001 -0.000000 -0.000006 0.334489 -4.789832 7.310763 0.830172 -2.655891 34.710622 0.001770 -0.128410 1.576488 -0.000002 -0.000001 -0.000003 -11.703121 -17.144229 14.594238 0.454431 -2.008341 25.496919 0.191014 -1.321454 16.449532 -0.000000 0.000000 0.000004 -30.544913 31.133638 3.296955 75.915797 4.394644 8.282104 -30.758049 1.811166 2.817697 0.580876 -0.000000 0.000002 -0.000001 0.000000 0.000000 -10.815431 -4.137877 16.179641 73.312566 33.673840 -13.821324 -67.012004 -30.851421 -46.573721 -3.459933 0.000013 0.000003 0.000000 0.000001 0.000000 
